<svg xmlns="http://www.w3.org/2000/svg" viewBox="0 0 32 32"><title>55-Note Book</title><g id="_55-Note_Book" data-name="55-Note Book"><path d="M9,2h3V13a1,1,0,0,0,1.55.83L16,12.2l2.45,1.63A1,1,0,0,0,20,13V2h7V0H7A4,4,0,0,0,3,4V5H1A2,2,0,0,0,3,7v3H1a2,2,0,0,0,2,2v3H1a2,2,0,0,0,2,2v3H1a2,2,0,0,0,2,2v3H1a2,2,0,0,0,2,2v1a4,4,0,0,0,4,4H22V30H9ZM7,30a2,2,0,0,1-2-2V27H7Zm0-5H5V22H7Zm0-5H5V17H7Zm0-5H5V12H7Zm0-5H5V7H7ZM7,5H5V4A2,2,0,0,1,7,2Z"/><path d="M30.89,8.55l-2-4a1,1,0,0,0-1.79,0l-2,4A1,1,0,0,0,25,9V31a1,1,0,0,0,1,1h4a1,1,0,0,0,1-1V9A1,1,0,0,0,30.89,8.55ZM29,30H27V27h2Zm0-5H27V10h2Z"/></g></svg>